<svg xmlns="http://www.w3.org/2000/svg" viewBox="0 0 512 512" fill="none">
  <rect width="512" height="512" rx="96" fill="#a855f7"/>
  <path d="M256 128C220.7 128 192 156.7 192 192V256C192 291.3 220.7 320 256 320C291.3 320 320 291.3 320 256V192C320 156.7 291.3 128 256 128ZM256 160C274.5 160 288 173.5 288 192V256C288 274.5 274.5 288 256 288C237.5 288 224 274.5 224 256V192C224 173.5 237.5 160 256 160Z" fill="white"/>
  <path d="M256 352C220.7 352 192 380.7 192 416C192 451.3 220.7 480 256 480C291.3 480 320 451.3 320 416C320 380.7 291.3 352 256 352ZM256 384C274.5 384 288 397.5 288 416C288 434.5 274.5 448 256 448C237.5 448 224 434.5 224 416C224 397.5 237.5 384 256 384Z" fill="white"/>
  <circle cx="256" cy="96" r="32" fill="white"/>
</svg>
